<?xml version="1.0" encoding="utf-8"?>
<!-- Generator: Adobe Illustrator 24.1.3, SVG Export Plug-In . SVG Version: 6.00 Build 0)  -->
<svg version="1.1"
	 id="svg2" xmlns:cc="http://creativecommons.org/ns#" xmlns:dc="http://purl.org/dc/elements/1.1/" xmlns:rdf="http://www.w3.org/1999/02/22-rdf-syntax-ns#" xmlns:svg="http://www.w3.org/2000/svg"
	 xmlns="http://www.w3.org/2000/svg" xmlns:xlink="http://www.w3.org/1999/xlink" x="0px" y="0px" viewBox="0 0 300 300"
	 style="enable-background:new 0 0 300 300;" xml:space="preserve">
<style type="text/css">
	.st0{fill:#FFFFFF;}
	.st1{fill:#F7A447;}
	.st2{fill:#62312D;}
	.st3{fill:#FBCBD5;}
	.st4{fill:#F57385;}
</style>
<g id="g10" transform="matrix(1.3333333,0,0,-1.3333333,0,2666.6667)">
	<g id="g12" transform="scale(0.1)">
		<g id="g14" transform="scale(1.22699)">
			<path id="path16" class="st0" d="M1833.8,14466.2H-0.1v1833.8h1833.8V14466.2"/>
		</g>
		<path id="path18" class="st1" d="M957.6,19160.7c0,0-189,235.1-320.6,191.2c-131.6-43.9-49.5-578.8,33.2-519.7"/>
		<path id="path20" class="st2" d="M657.2,18814.2c-6,0-12.1,1.7-17.9,5.1c-36.6,21.3-58.3,107.3-68,156.7
			c-15.8,80.3-20.9,169.8-13.8,239.2c3.9,38.4,11.5,70.3,22.3,94.6c13,29.1,30.8,47.6,52.9,54.9c33.3,11.1,72.1,7.1,115.3-11.8
			c33.2-14.5,69.3-38,107.3-69.8c64-53.5,110.8-111.5,112.8-114c4.7-5.8,3.7-14.3-2.1-19c-5.8-4.7-14.3-3.7-19,2.1l0,0
			c-0.5,0.6-47.4,58.6-109.4,110.4c-55.4,46.3-134.4,97.1-196.4,76.5c-29.3-9.8-49.5-54.8-56.9-126.7c-6.9-67-1.9-153.4,13.4-231.3
			c17.4-88.8,40.6-130.2,55.1-138.6c3.5-2.1,5.9-1.9,9.4,0.6c6.1,4.3,14.5,2.9,18.8-3.1c4.3-6.1,2.9-14.5-3.1-18.8
			C671.4,18816.5,664.4,18814.2,657.2,18814.2"/>
		<path id="path22" class="st1" d="M1292.4,19160.7c0,0,189,235.1,320.6,191.2c131.6-43.9,49.5-578.8-33.2-519.7"/>
		<path id="path24" class="st2" d="M1592.7,18814.2c-7.1,0-14.2,2.4-20.7,7.1c-6.1,4.3-7.5,12.8-3.1,18.8c4.3,6.1,12.8,7.5,18.8,3.1
			c3.5-2.5,5.9-2.7,9.4-0.6c14.5,8.4,37.7,49.8,55.1,138.6c15.3,77.9,20.3,164.3,13.4,231.3c-7.4,71.9-27.6,116.9-56.9,126.7
			c-62,20.7-141-30.2-196.4-76.5c-62-51.8-108.9-109.8-109.4-110.4c-4.7-5.8-13.2-6.7-19-2.1c-5.8,4.7-6.7,13.2-2.1,19
			c2,2.4,48.8,60.4,112.8,114c38,31.8,74.1,55.3,107.3,69.8c43.2,18.9,82,22.9,115.3,11.8c22.1-7.4,39.9-25.9,52.9-54.9
			c10.9-24.4,18.4-56.2,22.3-94.6c7.1-69.5,2-158.9-13.8-239.2c-9.7-49.4-31.4-135.5-68-156.7
			C1604.8,18815.9,1598.7,18814.2,1592.7,18814.2"/>
		<path id="path26" class="st3" d="M1344.3,19133.9c0,0,141.1,194.7,235.1,156.4c94.1-38.3,49.5-351-11.3-407.3
			C1568.2,18883,1543.4,19067.5,1344.3,19133.9"/>
		<path id="path28" class="st2" d="M1366.2,19140.3c39.9-15.4,75.5-36.8,106-63.5c28-24.5,51.7-53.7,70.4-86.6
			c16.7-29.2,26.5-56,32.1-75.3c13.2,24.6,25.6,63.4,34.1,107.6c12.6,65.9,14.8,134.2,6,182.5c-5,27.7-16.1,62.8-40.5,72.7
			c-6.5,2.7-13.6,4-21.2,4c-33.9,0-78.5-26.5-129.1-76.5C1399,19180.5,1378.2,19155.5,1366.2,19140.3L1366.2,19140.3z
			 M1568.2,18869.5c-1.5,0-3.1,0.3-4.6,0.8c-4.7,1.7-8.1,5.9-8.8,10.9c-0.1,0.6-6.5,45.1-36.2,96.6
			c-39.6,68.7-99.7,116.9-178.6,143.3c-4.1,1.4-7.3,4.6-8.6,8.7s-0.6,8.6,1.9,12c1.2,1.7,30.4,41.7,71.4,82.4
			c56.7,56.1,106.6,84.6,148.4,84.6c11.1,0,21.6-2,31.4-6c28.6-11.7,47.8-42.9,56.9-92.8c9.5-52.2,7.3-122.4-6.1-192.4
			c-6.3-33.1-24.6-113.5-57.9-144.4C1574.8,18870.7,1571.5,18869.5,1568.2,18869.5"/>
		<path id="path30" class="st3" d="M907.7,19133.9c0,0-141.1,194.7-235.1,156.4c-94-38.3-49.5-351,11.3-407.3
			C683.9,18883,708.6,19067.5,907.7,19133.9"/>
		<path id="path32" class="st2" d="M698.9,19281.8c-7.5,0-14.7-1.3-21.2-4c-24.3-9.9-35.5-45-40.5-72.7
			c-8.8-48.4-6.5-116.6,6.1-182.5c8.4-44.3,20.9-83,34.1-107.6c5.6,19.3,15.4,46.1,32.1,75.3c18.8,32.9,42.5,62,70.4,86.6
			c30.5,26.8,66,48.1,106,63.5c-12,15.1-32.7,40.1-57.8,64.9C777.4,19255.3,732.8,19281.8,698.9,19281.8L698.9,19281.8z
			 M683.8,18869.5c-3.3,0-6.6,1.2-9.2,3.6c-33.3,30.8-51.6,111.3-57.9,144.4c-13.4,70.1-15.6,140.2-6.1,192.4
			c9.1,49.9,28.2,81.2,56.9,92.8c9.8,4,20.3,6,31.4,6c41.8,0,91.7-28.5,148.4-84.6c41-40.7,70.2-80.7,71.4-82.4
			c2.5-3.5,3.2-8,1.9-12c-1.3-4.1-4.5-7.3-8.6-8.7c-78.9-26.3-139-74.5-178.6-143.3c-29.7-51.6-36.1-96.2-36.2-96.6
			c-0.7-5-4.1-9.2-8.8-10.9C686.9,18869.8,685.4,18869.5,683.8,18869.5"/>
		<path id="path34" class="st1" d="M1663.2,18490H586.7c1.1,164.6,39.6,757.3,538.3,675.8
			C1623.6,19247.3,1662.1,18654.6,1663.2,18490"/>
		<path id="path36" class="st0" d="M1365.5,18810.9l-164,148.5c0,0-28.1,165.5,24.8,213.9l-0.1,0.1c-31.4,0.8-65.1-1.6-101.2-7.5
			c-37,6-71.5,8.4-103.6,7.4l0,0c52.9-48.4,24.8-213.9,24.8-213.9l-164-148.5c-261.4-53.3-292-245.9-295.2-304.1
			c-0.1-6-0.2-11.6-0.2-16.8H1661C1661,18490,1674.7,18747.9,1365.5,18810.9"/>
		<path id="path38" class="st2" d="M600.4,18503.5h1049.2c-1.4,75.6-11.6,238.2-68.4,381c-72.6,182.8-195.9,275.4-366.3,275.4
			c-27.8,0-57.4-2.5-87.7-7.5c-1.4-0.2-2.9-0.2-4.4,0c-30.3,5-59.9,7.5-87.7,7.5c-170.4,0-293.6-92.7-366.3-275.4
			C612,18741.7,601.8,18579.1,600.4,18503.5z M1663.2,18476.5H586.7c-3.6,0-7,1.4-9.6,4c-2.5,2.6-3.9,6-3.9,9.6
			c0.3,39.6,2.7,101.9,12.5,173.5c11.8,86.1,31.3,163.8,58,230.9c34.6,86.9,81.1,155.6,138.3,204.1c69.1,58.6,154.2,88.3,253.1,88.3
			c28.6,0,58.9-2.5,89.9-7.5c31,5,61.3,7.5,89.9,7.5c98.9,0,184-29.7,253.1-88.3c57.2-48.5,103.8-117.2,138.3-204.1
			c26.7-67.1,46.2-144.8,58-230.9c9.8-71.6,12.2-133.9,12.5-173.5c0-3.6-1.4-7.1-3.9-9.6
			C1670.3,18478,1666.8,18476.5,1663.2,18476.5"/>
		<path id="path40" class="st2" d="M1372.8,18753l-248.3,13.6l-0.1,0.2l-1.7-0.1l-1.7,0.1l-0.1-0.2l-248.3-13.6
			c0,0-32.2-221.4,250.1-210.3C1405,18531.6,1372.8,18753,1372.8,18753"/>
		<path id="path42" class="st0" d="M1381,18802.6c0,0-64.7,37.1-82.1,82.7s-43.4,124.9-173.9,124.9c-130.5,0-156.4-79.3-173.9-124.9
			s-82.1-82.7-82.1-82.7"/>
		<path id="path44" class="st2" d="M1381,18802.6c0,0-0.6,0.3-1.8,0.9c-1.2,0.6-3,1.4-5.3,2.6c-4.6,2.4-11.3,6-19.5,11.2
			c-8.2,5.2-18,11.9-28.4,20.9c-5.2,4.5-10.5,9.6-15.8,15.4c-5.2,5.9-10.3,12.5-14.8,20.3c-1.1,2-2.2,3.9-3.1,6.1l-0.7,1.6
			c-0.3,0.5-0.5,1.1-0.7,1.5c-0.4,1-0.9,1.9-1.3,2.9c-1.7,3.9-3.4,7.9-5.2,11.9c-1.8,4-3.6,7.9-5.6,11.9c-2,3.9-4,7.9-6.3,11.8
			c-4.5,7.8-9.3,15.5-15.2,22.6c-5.8,7.1-12.3,13.8-19.6,19.7c-7.3,5.9-15.3,11-24,15.3c-2.2,1-4.4,2-6.6,3
			c-2.3,0.9-4.6,1.8-6.8,2.7c-2.3,0.8-4.7,1.6-7,2.4c-2.4,0.8-4.8,1.4-7.2,2.1c-9.7,2.6-19.8,4.3-30,5.6c-2.6,0.2-5.2,0.5-7.7,0.8
			c-2.6,0.3-5.2,0.3-7.8,0.5l-3.9,0.2c-1.3,0.1-2.6,0-3.9,0.1l-7.6,0.1l-8.2-0.1c-1.4,0-2.8,0-4.1-0.1l-3.8-0.2
			c-2.5-0.2-5.1-0.2-7.6-0.5c-2.6-0.3-5.2-0.5-7.7-0.8c-10.2-1.3-20.3-3-30-5.6c-2.4-0.7-4.8-1.3-7.2-2.1c-2.3-0.8-4.7-1.6-7-2.4
			c-2.3-0.9-4.6-1.8-6.8-2.7c-2.2-1-4.4-2-6.6-3c-8.7-4.3-16.7-9.5-24-15.3c-7.3-5.9-13.7-12.6-19.5-19.7
			c-5.8-7.1-10.7-14.8-15.2-22.6c-2.2-3.9-4.3-7.9-6.3-11.8c-1.9-4-3.8-8-5.6-11.9c-1.8-4-3.5-7.9-5.2-11.9c-0.4-1-0.9-2-1.3-2.9
			l-0.4-1l-0.3-0.7l-0.7-1.4c-0.8-1.8-2-4-3.1-6.1c-2.3-3.9-4.6-7.5-7.1-10.9c-0.6-0.8-1.2-1.7-1.9-2.5c-0.6-0.8-1.3-1.6-1.9-2.4
			c-1.2-1.6-2.6-3.1-3.9-4.5c-5.2-5.8-10.6-10.9-15.8-15.4c-10.4-9-20.2-15.7-28.4-20.9c-8.2-5.2-14.9-8.8-19.5-11.2
			c-2.3-1.2-4.1-2-5.3-2.6c-1.2-0.6-1.8-0.9-1.8-0.9s0.6,0.4,1.6,1.2c1.1,0.8,2.6,2,4.7,3.6c4.1,3.1,9.9,7.9,17.1,14.2
			c7.1,6.3,15.6,14.2,24.3,24c4.3,4.9,8.8,10.2,12.9,16.1c4.1,5.9,8,12.3,11,19.2c0.7,1.7,1.4,3.2,2.1,5.3l0.5,1.5l0.3,0.7
			c0,0.1-0.1-0.3,0,0l0.1,0.2l0.1,0.4c0.3,1,0.7,2,1,3c1.3,4.1,2.7,8.3,4.2,12.5c2.9,8.5,6.4,17.4,10.6,26.4
			c0.5,1.1,1.1,2.3,1.6,3.4c0.6,1.1,1.1,2.2,1.7,3.4c1.1,2.3,2.4,4.5,3.7,6.7c1.3,2.2,2.7,4.4,4,6.7c1.5,2.2,2.9,4.4,4.4,6.6
			c6.1,8.7,13.5,17,21.8,24.5c8.3,7.5,17.8,14.1,27.9,19.6c2.6,1.3,5.1,2.6,7.7,3.9c2.6,1.2,5.3,2.3,7.9,3.5c2.7,1,5.4,2,8.1,3
			c2.7,1,5.5,1.7,8.3,2.6c11.1,3.2,22.5,5.6,34,7c2.9,0.3,5.7,0.6,8.6,0.9c2.9,0.3,5.8,0.4,8.8,0.6l4.4,0.3c1.4,0.1,2.8,0.1,4.1,0.1
			l8.2,0.2l8.9-0.2c1.4,0,2.9-0.1,4.3-0.1l4.3-0.3c2.9-0.2,5.7-0.3,8.6-0.6c2.9-0.3,5.7-0.6,8.6-0.9c11.5-1.4,22.8-3.8,34-7
			c2.8-0.9,5.5-1.7,8.3-2.6c2.7-1,5.4-2,8.1-3c2.7-1.2,5.3-2.3,7.9-3.5c2.6-1.3,5.2-2.6,7.7-3.9c10.1-5.4,19.6-12,27.9-19.6
			c8.3-7.5,15.7-15.8,21.8-24.5c1.6-2.1,3-4.4,4.4-6.6c1.3-2.2,2.7-4.4,4-6.7c2.5-4.5,4.9-8.9,7-13.4c4.2-9,7.7-17.8,10.6-26.4
			c1.5-4.3,2.8-8.5,4.2-12.5c0.3-1,0.7-2,1-3c0.2-0.5,0.3-1,0.5-1.4l0.5-1.3c0.6-1.8,1.4-3.5,2.1-5.3c3-6.9,7-13.3,11.1-19.2
			c4.1-5.9,8.6-11.2,12.9-16.1c8.7-9.8,17.2-17.7,24.3-24c7.2-6.3,13-11.1,17.1-14.2C1378.7,18804.2,1381,18802.6,1381,18802.6"/>
		<path id="path46" class="st0" d="M1399.5,18765.4c0,0-6.8-92.3-103.5-75.4c-96.8,16.9-82.1,74.3-171,75.4
			c-88.9-1.1-74.3-58.5-171-75.4s-103.5,75.4-103.5,75.4"/>
		<path id="path48" class="st2" d="M1399.5,18765.4c0,0,0-0.7,0-2c0-1.3-0.1-3.2-0.3-5.7c-0.2-2.5-0.6-5.6-1.3-9.1
			c-0.7-3.6-1.6-7.7-3-12.2c-1.4-4.5-3.4-9.5-6-14.7c-2.7-5.2-6.1-10.6-10.6-15.8c-4.5-5.2-10.2-10.2-16.9-14.4
			c-6.7-4.2-14.5-7.4-22.9-9.5c-8.4-2.1-17.4-2.9-26.6-2.9c-2.3,0.1-4.6,0.2-6.9,0.3c-1.2,0-2.3,0.2-3.5,0.3
			c-1.2,0.1-2.3,0.2-3.5,0.4s-2.3,0.2-3.5,0.4c-1.2,0.2-2.3,0.4-3.5,0.5c-1.1,0.2-2.2,0.3-3.3,0.5c-1.1,0.2-2.2,0.3-3.4,0.6
			c-2.4,0.5-4.8,0.9-7.2,1.4c-2.4,0.6-4.7,1.2-7.1,1.7c-4.8,1.3-9.6,2.7-14.4,4.4c-1.2,0.4-2.4,0.9-3.6,1.3
			c-1.2,0.5-2.4,0.9-3.6,1.4c-2.4,1-4.8,2.1-7.2,3.2c-4.7,2.3-9.4,4.8-14,7.7c-9.2,5.6-17.6,12.3-25.4,18.8c-4,3.2-7.8,6.4-11.6,9.2
			c-3.8,2.9-7.6,5.6-11.5,7.9c-3.9,2.3-7.9,4.3-12.1,5.9c-1,0.4-2.1,0.8-3.2,1.1c-1.1,0.4-2.1,0.7-3.2,1l-3.3,1
			c-1.1,0.3-2.3,0.5-3.4,0.8c-2.2,0.6-4.6,0.9-6.9,1.3c-2.3,0.4-4.7,0.6-7.1,0.9l-7.2,0.5l-3.7,0.1l-1.8,0l-0.9,0l-0.5,0l-0.2,0
			c0.2,0-0.8,0,0.4,0l-7.9-0.2l-7-0.5c-2.4-0.3-4.8-0.5-7.1-0.9c-2.3-0.4-4.7-0.7-6.9-1.3c-1.1-0.3-2.3-0.5-3.4-0.8l-3.3-1
			c-1.1-0.3-2.2-0.7-3.2-1c-1.1-0.4-2.2-0.7-3.2-1.1c-4.2-1.6-8.2-3.6-12.1-5.9c-3.9-2.3-7.7-5-11.5-7.9c-3.8-2.9-7.7-6-11.6-9.2
			c-7.9-6.4-16.3-13.2-25.4-18.8c-9.1-5.6-18.7-10.3-28.3-13.7c-4.8-1.7-9.6-3.2-14.4-4.4c-2.4-0.6-4.8-1.2-7.1-1.7
			c-2.4-0.5-4.7-0.9-7.1-1.4c-2.3-0.5-4.7-0.7-7-1.1c-1.2-0.2-2.5-0.4-3.7-0.6c-1.1-0.1-2.2-0.2-3.3-0.3c-1.1-0.1-2.2-0.2-3.3-0.3
			c-1.1-0.1-2.1-0.2-3.4-0.3c-2.4-0.1-4.8-0.2-7.1-0.3c-9.2,0-18.2,0.8-26.6,2.9c-8.4,2.1-16.2,5.3-22.9,9.5
			c-6.7,4.2-12.4,9.1-16.9,14.4c-4.5,5.2-8,10.6-10.6,15.8c-2.7,5.2-4.6,10.1-6,14.7c-1.4,4.5-2.4,8.7-3,12.3
			c-0.7,3.6-1,6.7-1.3,9.1c-0.3,2.5-0.3,4.4-0.3,5.7c0,1.3,0,2,0,2s0.5-2.6,1.9-7.4c1.3-4.7,3.8-11.6,7.8-19.6
			c4.1-8,10.1-17.3,19.1-25.2c4.5-3.9,9.7-7.5,15.7-10.2c6-2.7,12.6-4.7,19.7-5.6c7.1-1,14.7-1,22.5-0.2c1.9,0.3,3.8,0.5,5.7,0.8
			c0.9,0.1,2,0.3,3.1,0.5c1.1,0.2,2.2,0.4,3.2,0.6c1.1,0.2,2.2,0.4,3.3,0.6c0.3,0.1-0.2,0-0.1,0l0.2,0l0.4,0.1l0.8,0.2l1.6,0.4
			c2.1,0.5,4.2,1,6.3,1.5c8.4,2.2,16.7,4.9,24.8,8.4c4.1,1.8,8,3.7,11.9,5.8c3.9,2.2,7.7,4.5,11.4,7.1c7.5,5.2,14.6,11.3,22.2,18
			c3.8,3.4,7.8,6.9,12,10.3c4.3,3.4,8.9,6.9,13.9,9.9c5,3,10.3,5.8,15.8,8.1c5.5,2.2,11.2,4.1,16.9,5.4c2.9,0.7,5.7,1.2,8.6,1.7
			c2.9,0.5,5.7,0.8,8.6,1.2c2.9,0.3,5.9,0.5,8.8,0.7l7.9,0.3c1.3,0,0.5,0,0.9,0l0.3,0l0.5,0l1.1,0l2.1-0.1l4.2-0.2
			c2.8-0.2,5.7-0.4,8.5-0.7c2.9-0.4,5.7-0.7,8.6-1.2c2.9-0.5,5.7-1,8.6-1.7c5.7-1.2,11.4-3.2,16.9-5.4c5.5-2.3,10.8-5.1,15.8-8.1
			c10-6.2,18.3-13.6,25.9-20.3c7.6-6.7,14.7-12.8,22.2-18c3.7-2.6,7.6-4.9,11.4-7.1c2-1,3.9-2.1,5.9-3c1-0.5,2-1,3-1.4
			c1-0.5,2-0.9,3-1.3c4.1-1.8,8.2-3.3,12.3-4.7c2.1-0.7,4.2-1.3,6.2-2c2.1-0.6,4.1-1.2,6.1-1.7c1-0.3,2.1-0.5,3.2-0.8
			c1.1-0.3,2.2-0.5,3.3-0.8c1-0.2,2-0.5,3.1-0.7c1-0.2,2-0.4,3-0.6c1-0.2,2-0.4,3-0.6c1-0.2,2-0.4,3-0.5c2-0.3,4-0.5,6-0.8
			c7.9-0.8,15.4-0.7,22.6,0.2c7.1,0.9,13.8,2.9,19.7,5.6c6,2.7,11.2,6.3,15.7,10.2c9,7.9,15,17.2,19.1,25.2c4,8.1,6.4,14.9,7.8,19.7
			C1399,18762.8,1399.5,18765.4,1399.5,18765.4"/>
		<path id="path50" class="st2" d="M1237.4,18936.9c0-39.8-50.3-126-112.4-126c-62.1,0-112.5,86.2-112.5,126s50.3,60.8,112.5,60.8
			C1187.1,18997.7,1237.4,18976.7,1237.4,18936.9"/>
		<path id="path52" class="st2" d="M1111.5,18765.4l13.5,69.9l13.5-69.9c1.4-7.5-3.4-14.7-10.9-16.1c-7.5-1.4-14.7,3.4-16.1,10.9
			C1111.1,18762,1111.2,18763.8,1111.5,18765.4"/>
		<path id="path54" class="st2" d="M1368.5,18975.3c0-28-22.7-50.6-50.6-50.6c-28,0-50.6,22.7-50.6,50.6c0,28,22.7,50.6,50.6,50.6
			C1345.8,19025.9,1368.5,19003.2,1368.5,18975.3"/>
		<path id="path56" class="st0" d="M1345.9,18997.7c0-7.4-6-13.4-13.4-13.4c-7.4,0-13.4,6-13.4,13.4s6,13.4,13.4,13.4
			C1339.9,19011.1,1345.9,19005.1,1345.9,18997.7"/>
		<path id="path58" class="st2" d="M982.7,18975.3c0-28-22.7-50.6-50.6-50.6c-28,0-50.6,22.7-50.6,50.6c0,28,22.7,50.6,50.6,50.6
			C960.1,19025.9,982.7,19003.2,982.7,18975.3"/>
		<path id="path60" class="st0" d="M960.2,18997.7c0-7.4-6-13.4-13.4-13.4c-7.4,0-13.4,6-13.4,13.4s6,13.4,13.4,13.4
			C954.2,19011.1,960.2,19005.1,960.2,18997.7"/>
		<g id="g62" transform="scale(1.01278)">
			<path id="path64" class="st0" d="M1529,18256.7c-0.6,3.9-1.4,7.3-2.4,10.3c-9.2,26.6-7,88.7-4.4,140.8
				c2.6,52.1,52.7,36.6,52.7,36.6s-14.5,57.7,47.4,68.7c61.9,11.1,56.9-32.2,56.9-32.2s4.6,34.3,52.8,32.2
				c39.5-1.7,35.1-65.4,35.1-65.4c51.3,25.5,66.6-35.5,60-128.6c-1.5-20.5-3.2-41.7-3.4-62.4"/>
		</g>
		<g id="g66" transform="scale(1.01956)">
			<path id="path68" class="st2" d="M1518.8,18122.1c-6.5,0-12.1,4.7-13.1,11.3c-0.4,3-1,5.7-1.8,7.8c-9,25.9-8.5,76.6-5.1,144.9
				c1,19.5,7.8,33.8,20.3,42.6c9.9,6.9,21.3,8.7,30.6,8.5c0.2,10.5,2.4,24,10.3,36.3c10.1,15.6,26.6,25.6,49.1,29.6
				c26.4,4.7,46.3,1.1,59-10.8c1.2-1.1,2.3-2.3,3.4-3.5c10.4,8.9,26.2,15.6,49.6,14.6c12-0.5,22.5-5.5,30.4-14.3
				c11.5-12.8,15.5-31.6,16.8-45.7c13.9,2.4,24-1.4,30.7-5.9c25.2-16.9,34.7-63,29.2-141c-0.2-3-0.5-6.1-0.7-9.1
				c-1.3-17.2-2.6-35-2.7-52c0-7.3-6-13.1-13.2-13.1c0,0-0.1,0-0.1,0c-7.3,0.1-13.2,6-13.2,13.4c0.2,18,1.5,36.2,2.8,53.8
				c0.2,3,0.4,6,0.7,9c6.6,93.4-11.8,113.2-17.5,117.1c-2,1.3-7.9,5.3-23-2.2c-4.3-2.1-9.3-1.8-13.2,0.8c-3.9,2.6-6.2,7.2-5.9,11.9
				c0.6,8.7-0.2,34-10.5,45.4c-3.1,3.5-6.9,5.2-11.8,5.4c-33.9,1.5-38.4-18.5-38.7-20.7l0,0.2l-13.1,1.8l-13.2,1.5l0-0.2
				c0,0.1,0.6,8.5-5,13.7c-6.2,5.6-18.9,7-36,4c-14.9-2.7-25.4-8.6-31.4-17.7c-9.7-14.8-5.2-34.2-5.2-34.3c1.2-4.6-0.3-9.5-3.8-12.8
				c-3.5-3.3-8.5-4.4-13-3c-4.5,1.3-18,3.6-26.2-2.2c-5.4-3.8-8.4-11.3-9-22.1c-1.8-35.2-5.5-108.6,3.6-134.9c1.3-3.7,2.3-8,3-12.7
				c1.1-7.2-4-14-11.2-15C1520.1,18122.1,1519.5,18122.1,1518.8,18122.1"/>
		</g>
		<path id="path70" class="st4" d="M1622.2,18545.5c0,31.6,32.9,75.3,73.5,75.3c40.6,0,73.5-43.7,73.5-75.3
			c0-31.6-32.9-31.4-73.5-31.4C1655.1,18514.1,1622.2,18513.9,1622.2,18545.5"/>
		<path id="path72" class="st4" d="M1621.1,18623.1c0-13.1-10.6-23.6-23.6-23.6c-13,0-23.6,10.6-23.6,23.6s10.6,23.6,23.6,23.6
			C1610.5,18646.7,1621.1,18636.2,1621.1,18623.1"/>
		<path id="path74" class="st4" d="M1676.2,18681.8c0-13.1-10.6-23.6-23.6-23.6c-13,0-23.6,10.6-23.6,23.6s10.6,23.6,23.6,23.6
			C1665.6,18705.5,1676.2,18694.9,1676.2,18681.8"/>
		<path id="path76" class="st4" d="M1761.7,18678.1c0-13.1-10.6-23.6-23.6-23.6c-13,0-23.6,10.6-23.6,23.6s10.6,23.6,23.6,23.6
			C1751.1,18701.8,1761.7,18691.2,1761.7,18678.1"/>
		<path id="path78" class="st4" d="M1817.5,18630.9c0-13.1-10.6-23.6-23.6-23.6c-13.1,0-23.6,10.6-23.6,23.6s10.6,23.6,23.6,23.6
			C1807,18654.5,1817.5,18643.9,1817.5,18630.9"/>
		<g id="g80" transform="scale(1.1459)">
			<path id="path82" class="st2" d="M1822,16124H141.5c-6.5,0-11.8,5.3-11.8,11.8c0,6.5,5.3,11.8,11.8,11.8H1822
				c6.5,0,11.8-5.3,11.8-11.8C1833.8,16129.3,1828.5,16124,1822,16124"/>
		</g>
		<path id="path84" class="st0" d="M660.1,18460.2c0,0,21.8-49.9,67-18.7c45.2,31.2,45.2,219.8-145,216.7
			c-190.2-3.1-184-247.9-121.6-261.9s71.7,49.9,71.7,49.9s-6.2-64.8,67-51.9C672.6,18407.2,660.1,18460.2,660.1,18460.2"/>
		<path id="path86" class="st2" d="M532.3,18459.7c0.5,0,1.1,0,1.6-0.1c7.3-0.9,12.5-7.4,11.8-14.7c0-0.1-1.4-18.2,8.8-29.4
			c5.8-6.3,14.8-9.5,26.8-9.5c0,0,0,0,0,0c4.8,0,10,0.5,15.7,1.5c21.8,3.8,36.8,11.7,44.5,23.4c8.2,12.5,5.6,26,5.5,26.1
			c-1.6,6.8,2.2,13.7,8.9,15.9c6.6,2.2,13.8-1,16.6-7.4c0.1-0.1,9.6-20.9,26.3-20.9c6.1,0,13.1,2.6,20.7,7.9
			c14.7,10.1,26.9,54.2,12.5,100.1c-10.7,34.4-43.8,92-145.2,92c-1.5,0-2.9,0-4.4,0c-122.7-2-143.1-107.3-146.4-139.6
			c-5.1-50,10.3-91.8,27.5-95.7c5-1.1,9.7-1.7,14-1.7c14.4,0,25.3,6.1,33.1,18.8c6.5,10.5,8.3,21.5,8.3,21.6
			C519.9,18454.9,525.6,18459.7,532.3,18459.7L532.3,18459.7z M581.3,18379C581.3,18379,581.3,18379,581.3,18379
			c-20,0-35.8,6.2-46.9,18.4c-2.2,2.5-4.2,5.1-5.8,7.7c-12.6-16-30.1-24.4-51.1-24.4c-6.3,0-13,0.8-20,2.3
			c-17.8,4-32.4,20.3-41.1,45.8c-7.7,22.5-10.3,50.6-7.4,79c4.3,42.3,20.5,81.1,45.5,109.3c30.8,34.8,74.8,53.6,127.3,54.5
			c1.6,0,3.2,0,4.9,0c47.1,0,86.4-11.4,116.9-33.8c25.6-18.9,44.3-45.6,54.1-77.1c7.8-24.9,9.7-52.2,5.4-76.7
			c-4.4-25-14.4-44.1-28.4-53.7c-12.2-8.4-24.3-12.6-36-12.6c-11.8,0-21.4,4.2-29,9.7c-1.5-3.7-3.4-7.5-5.9-11.2
			c-12-18.2-32.9-30-62.3-35.2C594.5,18379.7,587.6,18379,581.3,18379"/>
		<path id="path88" class="st4" d="M1125,18397c195.8,0,149.6,190.2,115.9,236.8s-115.9,0-115.9,0s-82.1,46.6-115.9,0
			C975.3,18587.2,929.2,18397,1125,18397"/>
		<path id="path90" class="st2" d="M1054.1,18641c-15.6,0-26.7-4.9-34.1-15.1c-19.7-27.2-42.3-105.9-15.1-159.1
			c19.1-37.3,59.5-56.3,120.1-56.3c60.6,0,101,18.9,120.1,56.3c27.2,53.2,4.6,131.9-15.1,159.1c-7.4,10.2-18.5,15.1-34.1,15.1
			c-30.2,0-63.8-18.8-64.2-19c-4.1-2.3-9.2-2.3-13.3,0C1118,18622.2,1084.4,18641,1054.1,18641L1054.1,18641z M1125,18383.5
			c-37.1,0-68.5,6.6-93.2,19.7c-22.5,11.9-39.7,29.2-50.9,51.3c-18.7,36.6-17.1,78.1-12.5,106.4c5.1,31.1,16.8,62.8,29.8,80.8
			c12.5,17.2,31.8,26.3,56,26.3c28.7,0,58-12.7,70.8-19c12.8,6.3,42.1,19,70.8,19c24.2,0,43.5-9.1,56-26.3
			c13.1-18,24.8-49.7,29.8-80.8c4.6-28.3,6.2-69.8-12.5-106.4c-11.3-22.1-28.4-39.3-50.9-51.3
			C1193.4,18390.1,1162.1,18383.5,1125,18383.5"/>
		<path id="path92" class="st2" d="M1138.5,18633.6l-15.8-205.7l-11.2,206c-0.4,7.5,5.3,13.8,12.8,14.2c7.5,0.4,13.8-5.3,14.2-12.8
			C1138.5,18634.8,1138.5,18634.2,1138.5,18633.6"/>
	</g>
</g>
</svg>
